<?xml version="1.0" standalone="no"?>
<!DOCTYPE svg PUBLIC "-//W3C//DTD SVG 20010904//EN"
 "http://www.w3.org/TR/2001/REC-SVG-20010904/DTD/svg10.dtd">
<svg version="1.0" xmlns="http://www.w3.org/2000/svg"
 width="354.000000pt" height="354.000000pt" viewBox="0 0 354.000000 354.000000"
 preserveAspectRatio="xMidYMid meet">
<metadata>
Created by potrace 1.14, written by Peter Selinger 2001-2017
</metadata>
<g transform="translate(0.000000,354.000000) scale(0.100000,-0.100000)"
fill="#000000" stroke="none">
<path d="M2329 3495 c-54 -14 -52 -13 -144 -73 -74 -48 -127 -104 -224 -242
-101 -144 -106 -149 -118 -150 -7 0 -13 -4 -13 -10 0 -5 -12 -21 -26 -35 -23
-23 -28 -25 -47 -12 -47 30 -56 28 -72 -10 -9 -20 -14 -42 -11 -49 5 -13 -51
-63 -119 -106 -35 -23 -49 -25 -110 -23 -38 2 -87 10 -107 19 -60 26 -68 22
-83 -42 -5 -21 -9 -22 -53 -25 -23 -1 -44 -5 -47 -9 -4 -3 10 -19 29 -34 36
-29 39 -49 15 -78 -72 -87 -100 -136 -124 -219 -9 -31 -21 -59 -26 -62 -10 -7
-51 5 -138 37 -63 24 -73 17 -60 -44 5 -21 7 -43 4 -49 -4 -5 -2 -9 4 -9 9 0
8 -57 -1 -65 -2 -2 -22 -5 -45 -8 -94 -13 -172 -42 -169 -63 1 -7 9 -21 17
-31 17 -20 71 -115 67 -118 -2 -1 -28 -14 -58 -29 -73 -37 -117 -71 -117 -90
0 -36 94 -83 135 -69 12 4 14 3 7 -5 -5 -6 -23 -12 -40 -14 -16 -2 -37 -11
-46 -20 -9 -10 -26 -18 -37 -18 -11 0 -33 -11 -49 -24 -16 -13 -45 -27 -66
-31 -22 -4 -39 -14 -42 -25 -3 -10 -17 -21 -30 -24 -13 -3 -30 -18 -38 -34 -7
-15 -19 -26 -25 -25 -6 2 -15 -9 -18 -24 -4 -15 -13 -38 -20 -51 -11 -21 -10
-32 6 -71 41 -102 63 -157 70 -176 4 -11 17 -40 28 -65 29 -64 122 -323 122
-338 0 -7 4 -20 9 -30 9 -18 29 -78 36 -109 2 -10 20 -72 40 -138 20 -66 38
-127 40 -135 23 -90 123 -195 239 -250 91 -42 131 -58 161 -63 11 -2 40 -10
65 -17 25 -7 49 -13 53 -12 5 2 25 -2 45 -8 34 -10 137 -27 207 -35 44 -5 312
-17 370 -17 189 2 399 15 445 27 3 1 46 7 95 14 50 7 95 14 100 15 6 2 12 4
15 5 3 0 39 10 80 22 41 11 82 22 91 24 9 2 36 13 60 24 23 12 49 21 56 21 23
0 146 72 182 107 23 22 36 44 37 64 1 17 6 47 10 67 4 21 8 40 8 44 1 3 4 10
9 14 4 4 7 18 7 30 0 13 6 41 14 61 19 56 34 105 40 133 9 44 14 64 27 110 14
52 15 56 22 92 3 14 10 35 15 45 5 10 17 52 27 93 10 41 24 87 31 101 7 15 15
37 18 50 3 13 17 60 31 104 14 44 25 88 25 98 0 10 9 30 20 45 21 29 36 132
20 132 -6 0 -10 11 -10 24 0 14 -4 28 -10 31 -5 3 -10 13 -10 20 0 8 -13 28
-30 45 -36 37 -150 111 -160 105 -18 -11 -32 29 -33 98 -2 62 -7 83 -36 138
-18 35 -37 66 -41 69 -4 3 -26 33 -49 67 -73 107 -193 213 -241 213 -11 0 -24
9 -30 21 -9 17 -19 20 -53 16 -57 -5 -90 5 -93 28 -3 21 -55 136 -65 145 -3 3
-20 34 -37 70 -18 36 -52 99 -77 140 -55 92 -65 113 -80 169 -14 47 -10 166 5
207 6 14 10 36 10 50 0 31 40 109 78 152 16 17 32 32 35 32 7 0 87 77 87 83 0
8 -44 4 -91 -8z"/>
</g>
</svg>
